<mxfile host="Electron" agent="Mozilla/5.0 (X11; Linux x86_64) AppleWebKit/537.36 (KHTML, like Gecko) draw.io/28.2.5 Chrome/138.0.7204.251 Electron/37.6.1 Safari/537.36" version="28.2.5" pages="6">
  <diagram name="paso_0" id="u9OVkVpDQS_1Waeo6PR4">
    <mxGraphModel dx="1370" dy="843" grid="1" gridSize="10" guides="1" tooltips="1" connect="1" arrows="1" fold="1" page="1" pageScale="1" pageWidth="850" pageHeight="1100" math="0" shadow="0">
      <root>
        <mxCell id="0" />
        <mxCell id="1" parent="0" />
        <mxCell id="JHZ5MjyZt1OVU0lkdzLv-1" value="&lt;font style=&quot;font-size: 36px;&quot; face=&quot;Cascadia Code&quot; color=&quot;#4d4d4d&quot;&gt;?&lt;/font&gt;" style="rounded=0;whiteSpace=wrap;html=1;strokeWidth=1;fillColor=#DFEAF2;" parent="1" vertex="1">
          <mxGeometry x="320" y="240" width="80" height="80" as="geometry" />
        </mxCell>
        <mxCell id="JHZ5MjyZt1OVU0lkdzLv-2" value="&lt;span style=&quot;color: rgb(77, 77, 77); font-family: &amp;quot;Cascadia Code&amp;quot;; font-size: 40px;&quot;&gt;?&lt;/span&gt;" style="rounded=0;whiteSpace=wrap;html=1;strokeWidth=1;fillColor=#DFEAF2;" parent="1" vertex="1">
          <mxGeometry x="400" y="240" width="80" height="80" as="geometry" />
        </mxCell>
        <mxCell id="JHZ5MjyZt1OVU0lkdzLv-4" value="&lt;font face=&quot;Cascadia Code&quot; color=&quot;#4d4d4d&quot;&gt;&lt;span style=&quot;font-size: 36px;&quot;&gt;?&lt;/span&gt;&lt;/font&gt;" style="rounded=0;whiteSpace=wrap;html=1;strokeWidth=1;fillColor=#DFEAF2;" parent="1" vertex="1">
          <mxGeometry x="240" y="240" width="80" height="80" as="geometry" />
        </mxCell>
        <mxCell id="JHZ5MjyZt1OVU0lkdzLv-6" value="&lt;span style=&quot;color: rgb(77, 77, 77); font-family: &amp;quot;Cascadia Code&amp;quot;; font-size: 40px;&quot;&gt;?&lt;/span&gt;" style="rounded=0;whiteSpace=wrap;html=1;strokeWidth=1;fillColor=#DFEAF2;" parent="1" vertex="1">
          <mxGeometry x="480" y="240" width="80" height="80" as="geometry" />
        </mxCell>
        <mxCell id="JHZ5MjyZt1OVU0lkdzLv-7" value="&lt;font style=&quot;font-size: 36px;&quot; face=&quot;Cascadia Code&quot; color=&quot;#4d4d4d&quot;&gt;?&lt;/font&gt;" style="rounded=0;whiteSpace=wrap;html=1;strokeWidth=1;fillColor=#DFEAF2;" parent="1" vertex="1">
          <mxGeometry x="640" y="240" width="80" height="80" as="geometry" />
        </mxCell>
        <mxCell id="JHZ5MjyZt1OVU0lkdzLv-8" value="&lt;span style=&quot;color: rgb(77, 77, 77); font-family: &amp;quot;Cascadia Code&amp;quot;; font-size: 40px;&quot;&gt;?&lt;/span&gt;" style="rounded=0;whiteSpace=wrap;html=1;strokeWidth=1;fillColor=#DFEAF2;" parent="1" vertex="1">
          <mxGeometry x="720" y="240" width="80" height="80" as="geometry" />
        </mxCell>
        <mxCell id="JHZ5MjyZt1OVU0lkdzLv-9" value="&lt;font face=&quot;Cascadia Code&quot; color=&quot;#4d4d4d&quot;&gt;&lt;span style=&quot;font-size: 36px;&quot;&gt;?&lt;/span&gt;&lt;/font&gt;" style="rounded=0;whiteSpace=wrap;html=1;strokeWidth=1;fillColor=#DFEAF2;" parent="1" vertex="1">
          <mxGeometry x="560" y="240" width="80" height="80" as="geometry" />
        </mxCell>
        <mxCell id="NbHFlpnaIf63vaq1OpX9-1" value="&lt;font style=&quot;font-size: 36px;&quot; face=&quot;Cascadia Code&quot; color=&quot;#4d4d4d&quot;&gt;?&lt;/font&gt;" style="rounded=0;whiteSpace=wrap;html=1;strokeWidth=1;fillColor=#DFEAF2;" parent="1" vertex="1">
          <mxGeometry x="800" y="240" width="80" height="80" as="geometry" />
        </mxCell>
        <mxCell id="NbHFlpnaIf63vaq1OpX9-2" value="&lt;span style=&quot;color: rgb(77, 77, 77); font-family: &amp;quot;Cascadia Code&amp;quot;; font-size: 40px;&quot;&gt;?&lt;/span&gt;" style="rounded=0;whiteSpace=wrap;html=1;strokeWidth=1;fillColor=#DFEAF2;" parent="1" vertex="1">
          <mxGeometry x="880" y="240" width="80" height="80" as="geometry" />
        </mxCell>
      </root>
    </mxGraphModel>
  </diagram>
  <diagram name="paso_1" id="jjUFK7OK4P2rjII9vYLw">
    <mxGraphModel dx="1370" dy="843" grid="1" gridSize="10" guides="1" tooltips="1" connect="1" arrows="1" fold="1" page="1" pageScale="1" pageWidth="850" pageHeight="1100" math="0" shadow="0">
      <root>
        <mxCell id="GSjd4zVcTGeiq1gK2izT-0" />
        <mxCell id="GSjd4zVcTGeiq1gK2izT-1" parent="GSjd4zVcTGeiq1gK2izT-0" />
        <mxCell id="GSjd4zVcTGeiq1gK2izT-5" value="&lt;span style=&quot;color: rgb(77, 77, 77); font-family: &amp;quot;Cascadia Code&amp;quot;; font-size: 40px;&quot;&gt;11&lt;/span&gt;" style="rounded=0;whiteSpace=wrap;html=1;strokeWidth=1;fillColor=#DFEAF2;" parent="GSjd4zVcTGeiq1gK2izT-1" vertex="1">
          <mxGeometry x="400" y="320" width="80" height="80" as="geometry" />
        </mxCell>
        <mxCell id="k9fa4za2PcXtZBK1U84h-0" value="&lt;font style=&quot;font-size: 36px;&quot; face=&quot;Cascadia Code&quot; color=&quot;#4d4d4d&quot;&gt;?&lt;/font&gt;" style="rounded=0;whiteSpace=wrap;html=1;strokeWidth=1;fillColor=#DFEAF2;" parent="GSjd4zVcTGeiq1gK2izT-1" vertex="1">
          <mxGeometry x="160" y="320" width="80" height="80" as="geometry" />
        </mxCell>
        <mxCell id="k9fa4za2PcXtZBK1U84h-1" value="&lt;span style=&quot;color: rgb(77, 77, 77); font-family: &amp;quot;Cascadia Code&amp;quot;; font-size: 40px;&quot;&gt;?&lt;/span&gt;" style="rounded=0;whiteSpace=wrap;html=1;strokeWidth=1;fillColor=#DFEAF2;" parent="GSjd4zVcTGeiq1gK2izT-1" vertex="1">
          <mxGeometry x="240" y="320" width="80" height="80" as="geometry" />
        </mxCell>
        <mxCell id="k9fa4za2PcXtZBK1U84h-2" value="&lt;font face=&quot;Cascadia Code&quot; color=&quot;#4d4d4d&quot;&gt;&lt;span style=&quot;font-size: 36px;&quot;&gt;?&lt;/span&gt;&lt;/font&gt;" style="rounded=0;whiteSpace=wrap;html=1;strokeWidth=1;fillColor=#DFEAF2;" parent="GSjd4zVcTGeiq1gK2izT-1" vertex="1">
          <mxGeometry x="80" y="320" width="80" height="80" as="geometry" />
        </mxCell>
        <mxCell id="k9fa4za2PcXtZBK1U84h-3" value="&lt;span style=&quot;color: rgb(77, 77, 77); font-family: &amp;quot;Cascadia Code&amp;quot;; font-size: 40px;&quot;&gt;?&lt;/span&gt;" style="rounded=0;whiteSpace=wrap;html=1;strokeWidth=1;fillColor=#DFEAF2;" parent="GSjd4zVcTGeiq1gK2izT-1" vertex="1">
          <mxGeometry x="320" y="320" width="80" height="80" as="geometry" />
        </mxCell>
        <mxCell id="k9fa4za2PcXtZBK1U84h-4" value="&lt;font style=&quot;font-size: 36px;&quot; face=&quot;Cascadia Code&quot; color=&quot;#4d4d4d&quot;&gt;?&lt;/font&gt;" style="rounded=0;whiteSpace=wrap;html=1;strokeWidth=1;fillColor=#DFEAF2;" parent="GSjd4zVcTGeiq1gK2izT-1" vertex="1">
          <mxGeometry x="480" y="320" width="80" height="80" as="geometry" />
        </mxCell>
        <mxCell id="k9fa4za2PcXtZBK1U84h-5" value="&lt;span style=&quot;color: rgb(77, 77, 77); font-family: &amp;quot;Cascadia Code&amp;quot;; font-size: 40px;&quot;&gt;?&lt;/span&gt;" style="rounded=0;whiteSpace=wrap;html=1;strokeWidth=1;fillColor=#DFEAF2;" parent="GSjd4zVcTGeiq1gK2izT-1" vertex="1">
          <mxGeometry x="560" y="320" width="80" height="80" as="geometry" />
        </mxCell>
        <mxCell id="k9fa4za2PcXtZBK1U84h-7" value="&lt;font style=&quot;font-size: 36px;&quot; face=&quot;Cascadia Code&quot; color=&quot;#4d4d4d&quot;&gt;?&lt;/font&gt;" style="rounded=0;whiteSpace=wrap;html=1;strokeWidth=1;fillColor=#DFEAF2;" parent="GSjd4zVcTGeiq1gK2izT-1" vertex="1">
          <mxGeometry x="640" y="320" width="80" height="80" as="geometry" />
        </mxCell>
        <mxCell id="k9fa4za2PcXtZBK1U84h-8" value="&lt;span style=&quot;color: rgb(77, 77, 77); font-family: &amp;quot;Cascadia Code&amp;quot;; font-size: 40px;&quot;&gt;?&lt;/span&gt;" style="rounded=0;whiteSpace=wrap;html=1;strokeWidth=1;fillColor=#DFEAF2;" parent="GSjd4zVcTGeiq1gK2izT-1" vertex="1">
          <mxGeometry x="720" y="320" width="80" height="80" as="geometry" />
        </mxCell>
        <mxCell id="4VjWL_NEY6jCTfJY9kkd-0" value="" style="group" parent="GSjd4zVcTGeiq1gK2izT-1" vertex="1" connectable="0">
          <mxGeometry x="410" y="190" width="200" height="120" as="geometry" />
        </mxCell>
        <mxCell id="4VjWL_NEY6jCTfJY9kkd-1" value="" style="group" parent="4VjWL_NEY6jCTfJY9kkd-0" vertex="1" connectable="0">
          <mxGeometry width="200" height="100" as="geometry" />
        </mxCell>
        <mxCell id="4VjWL_NEY6jCTfJY9kkd-2" value="&lt;font style=&quot;font-size: 32px;&quot;&gt;🕵🏻&lt;/font&gt;" style="text;html=1;align=center;verticalAlign=middle;whiteSpace=wrap;rounded=0;" parent="4VjWL_NEY6jCTfJY9kkd-1" vertex="1">
          <mxGeometry y="40" width="70" height="60" as="geometry" />
        </mxCell>
        <mxCell id="4VjWL_NEY6jCTfJY9kkd-3" value="&lt;font style=&quot;color: rgb(77, 77, 77);&quot;&gt;&lt;span style=&quot;font-family: &amp;quot;Cascadia Code&amp;quot;; font-size: 18px;&quot;&gt;¿igual, menor o mayor a 15&lt;/span&gt;&lt;span style=&quot;font-family: &amp;quot;Cascadia Code&amp;quot;; font-size: 18px;&quot;&gt;?&lt;/span&gt;&lt;/font&gt;" style="whiteSpace=wrap;html=1;shape=mxgraph.basic.roundRectCallout;dx=30;dy=15;size=5;boundedLbl=1;" parent="4VjWL_NEY6jCTfJY9kkd-1" vertex="1">
          <mxGeometry x="40" width="160" height="60" as="geometry" />
        </mxCell>
        <mxCell id="ldLOIgzhJHMM-44Szor0-0" value="&lt;span style=&quot;font-family: &amp;quot;Cascadia Code&amp;quot;; font-size: 18px;&quot;&gt;menor&lt;/span&gt;" style="text;html=1;align=center;verticalAlign=middle;whiteSpace=wrap;rounded=0;" parent="4VjWL_NEY6jCTfJY9kkd-1" vertex="1">
          <mxGeometry x="90" y="50" width="80" height="40" as="geometry" />
        </mxCell>
        <mxCell id="4VjWL_NEY6jCTfJY9kkd-5" value="" style="endArrow=classic;html=1;rounded=0;strokeWidth=2;strokeColor=#4D4D4D;" parent="4VjWL_NEY6jCTfJY9kkd-0" edge="1">
          <mxGeometry width="50" height="50" relative="1" as="geometry">
            <mxPoint x="30.900000000000006" y="90" as="sourcePoint" />
            <mxPoint x="30.900000000000006" y="120" as="targetPoint" />
          </mxGeometry>
        </mxCell>
      </root>
    </mxGraphModel>
  </diagram>
  <diagram name="paso_2" id="I2hksXrsOGNJhIaEmSm5">
    <mxGraphModel dx="1370" dy="843" grid="1" gridSize="10" guides="1" tooltips="1" connect="1" arrows="1" fold="1" page="1" pageScale="1" pageWidth="850" pageHeight="1100" math="0" shadow="0">
      <root>
        <mxCell id="f2iP-Qd0L-BFOooE9m8T-0" />
        <mxCell id="f2iP-Qd0L-BFOooE9m8T-1" parent="f2iP-Qd0L-BFOooE9m8T-0" />
        <mxCell id="f2iP-Qd0L-BFOooE9m8T-2" value="&lt;font face=&quot;Cascadia Code&quot; color=&quot;#4d4d4d&quot;&gt;&lt;span style=&quot;font-size: 36px;&quot;&gt;?&lt;/span&gt;&lt;/font&gt;" style="rounded=0;whiteSpace=wrap;html=1;strokeWidth=1;fillColor=#E6E6E6;fontColor=#333333;strokeColor=#666666;fillStyle=auto;" parent="f2iP-Qd0L-BFOooE9m8T-1" vertex="1">
          <mxGeometry x="80" y="360" width="80" height="80" as="geometry" />
        </mxCell>
        <mxCell id="f2iP-Qd0L-BFOooE9m8T-3" value="&lt;span style=&quot;color: rgb(77, 77, 77); font-family: &amp;quot;Cascadia Code&amp;quot;; font-size: 40px;&quot;&gt;11&lt;/span&gt;" style="rounded=0;whiteSpace=wrap;html=1;strokeWidth=1;fillColor=#E6E6E6;strokeColor=#666666;" parent="f2iP-Qd0L-BFOooE9m8T-1" vertex="1">
          <mxGeometry x="400" y="360" width="80" height="80" as="geometry" />
        </mxCell>
        <mxCell id="f2iP-Qd0L-BFOooE9m8T-7" value="&lt;font face=&quot;Cascadia Code&quot; color=&quot;#4d4d4d&quot;&gt;&lt;span style=&quot;font-size: 36px;&quot;&gt;?&lt;/span&gt;&lt;/font&gt;" style="rounded=0;whiteSpace=wrap;html=1;strokeWidth=1;fillColor=#E6E6E6;fontColor=#333333;strokeColor=#666666;fillStyle=auto;" parent="f2iP-Qd0L-BFOooE9m8T-1" vertex="1">
          <mxGeometry x="160" y="360" width="80" height="80" as="geometry" />
        </mxCell>
        <mxCell id="f2iP-Qd0L-BFOooE9m8T-8" value="&lt;font face=&quot;Cascadia Code&quot; color=&quot;#4d4d4d&quot;&gt;&lt;span style=&quot;font-size: 36px;&quot;&gt;?&lt;/span&gt;&lt;/font&gt;" style="rounded=0;whiteSpace=wrap;html=1;strokeWidth=1;fillColor=#E6E6E6;fontColor=#333333;strokeColor=#666666;fillStyle=auto;" parent="f2iP-Qd0L-BFOooE9m8T-1" vertex="1">
          <mxGeometry x="240" y="360" width="80" height="80" as="geometry" />
        </mxCell>
        <mxCell id="f2iP-Qd0L-BFOooE9m8T-13" value="&lt;font style=&quot;font-size: 36px;&quot; face=&quot;Cascadia Code&quot; color=&quot;#4d4d4d&quot;&gt;?&lt;/font&gt;" style="rounded=0;whiteSpace=wrap;html=1;strokeWidth=1;fillColor=#DFEAF2;" parent="f2iP-Qd0L-BFOooE9m8T-1" vertex="1">
          <mxGeometry x="480" y="360" width="80" height="80" as="geometry" />
        </mxCell>
        <mxCell id="f2iP-Qd0L-BFOooE9m8T-14" value="&lt;span style=&quot;color: rgb(77, 77, 77); font-family: &amp;quot;Cascadia Code&amp;quot;; font-size: 40px;&quot;&gt;?&lt;/span&gt;" style="rounded=0;whiteSpace=wrap;html=1;strokeWidth=1;fillColor=#DFEAF2;" parent="f2iP-Qd0L-BFOooE9m8T-1" vertex="1">
          <mxGeometry x="560" y="360" width="80" height="80" as="geometry" />
        </mxCell>
        <mxCell id="f2iP-Qd0L-BFOooE9m8T-15" value="&lt;font style=&quot;font-size: 36px;&quot; face=&quot;Cascadia Code&quot; color=&quot;#4d4d4d&quot;&gt;?&lt;/font&gt;" style="rounded=0;whiteSpace=wrap;html=1;strokeWidth=1;fillColor=#DFEAF2;" parent="f2iP-Qd0L-BFOooE9m8T-1" vertex="1">
          <mxGeometry x="640" y="360" width="80" height="80" as="geometry" />
        </mxCell>
        <mxCell id="f2iP-Qd0L-BFOooE9m8T-16" value="&lt;span style=&quot;color: rgb(77, 77, 77); font-family: &amp;quot;Cascadia Code&amp;quot;; font-size: 40px;&quot;&gt;?&lt;/span&gt;" style="rounded=0;whiteSpace=wrap;html=1;strokeWidth=1;fillColor=#DFEAF2;" parent="f2iP-Qd0L-BFOooE9m8T-1" vertex="1">
          <mxGeometry x="720" y="360" width="80" height="80" as="geometry" />
        </mxCell>
        <mxCell id="aQ1I5pSHEcbS3WNMG0Yj-0" value="&lt;font face=&quot;Cascadia Code&quot; color=&quot;#4d4d4d&quot;&gt;&lt;span style=&quot;font-size: 36px;&quot;&gt;?&lt;/span&gt;&lt;/font&gt;" style="rounded=0;whiteSpace=wrap;html=1;strokeWidth=1;fillColor=#E6E6E6;fontColor=#333333;strokeColor=#666666;fillStyle=auto;" parent="f2iP-Qd0L-BFOooE9m8T-1" vertex="1">
          <mxGeometry x="320" y="360" width="80" height="80" as="geometry" />
        </mxCell>
      </root>
    </mxGraphModel>
  </diagram>
  <diagram name="paso_3" id="-EBPDD2G048I5q-zhq43">
    <mxGraphModel dx="1370" dy="843" grid="1" gridSize="10" guides="1" tooltips="1" connect="1" arrows="1" fold="1" page="1" pageScale="1" pageWidth="850" pageHeight="1100" math="0" shadow="0">
      <root>
        <mxCell id="cCi473XIP719685R_bGp-0" />
        <mxCell id="cCi473XIP719685R_bGp-1" parent="cCi473XIP719685R_bGp-0" />
        <mxCell id="cCi473XIP719685R_bGp-2" value="&lt;font face=&quot;Cascadia Code&quot; color=&quot;#4d4d4d&quot;&gt;&lt;span style=&quot;font-size: 36px;&quot;&gt;?&lt;/span&gt;&lt;/font&gt;" style="rounded=0;whiteSpace=wrap;html=1;strokeWidth=1;fillColor=#E6E6E6;fontColor=#333333;strokeColor=#666666;fillStyle=auto;" parent="cCi473XIP719685R_bGp-1" vertex="1">
          <mxGeometry x="80" y="360" width="80" height="80" as="geometry" />
        </mxCell>
        <mxCell id="cCi473XIP719685R_bGp-3" value="&lt;span style=&quot;color: rgb(77, 77, 77); font-family: &amp;quot;Cascadia Code&amp;quot;; font-size: 40px;&quot;&gt;11&lt;/span&gt;" style="rounded=0;whiteSpace=wrap;html=1;strokeWidth=1;fillColor=#E6E6E6;strokeColor=#666666;" parent="cCi473XIP719685R_bGp-1" vertex="1">
          <mxGeometry x="400" y="360" width="80" height="80" as="geometry" />
        </mxCell>
        <mxCell id="cCi473XIP719685R_bGp-4" value="&lt;font face=&quot;Cascadia Code&quot; color=&quot;#4d4d4d&quot;&gt;&lt;span style=&quot;font-size: 36px;&quot;&gt;?&lt;/span&gt;&lt;/font&gt;" style="rounded=0;whiteSpace=wrap;html=1;strokeWidth=1;fillColor=#E6E6E6;fontColor=#333333;strokeColor=#666666;fillStyle=auto;" parent="cCi473XIP719685R_bGp-1" vertex="1">
          <mxGeometry x="160" y="360" width="80" height="80" as="geometry" />
        </mxCell>
        <mxCell id="cCi473XIP719685R_bGp-5" value="&lt;font face=&quot;Cascadia Code&quot; color=&quot;#4d4d4d&quot;&gt;&lt;span style=&quot;font-size: 36px;&quot;&gt;?&lt;/span&gt;&lt;/font&gt;" style="rounded=0;whiteSpace=wrap;html=1;strokeWidth=1;fillColor=#E6E6E6;fontColor=#333333;strokeColor=#666666;fillStyle=auto;" parent="cCi473XIP719685R_bGp-1" vertex="1">
          <mxGeometry x="240" y="360" width="80" height="80" as="geometry" />
        </mxCell>
        <mxCell id="cCi473XIP719685R_bGp-6" value="&lt;font style=&quot;font-size: 36px;&quot; face=&quot;Cascadia Code&quot; color=&quot;#4d4d4d&quot;&gt;?&lt;/font&gt;" style="rounded=0;whiteSpace=wrap;html=1;strokeWidth=1;fillColor=#DFEAF2;" parent="cCi473XIP719685R_bGp-1" vertex="1">
          <mxGeometry x="480" y="360" width="80" height="80" as="geometry" />
        </mxCell>
        <mxCell id="cCi473XIP719685R_bGp-7" value="&lt;span style=&quot;color: rgb(77, 77, 77); font-family: &amp;quot;Cascadia Code&amp;quot;; font-size: 40px;&quot;&gt;?&lt;/span&gt;" style="rounded=0;whiteSpace=wrap;html=1;strokeWidth=1;fillColor=#DFEAF2;" parent="cCi473XIP719685R_bGp-1" vertex="1">
          <mxGeometry x="560" y="360" width="80" height="80" as="geometry" />
        </mxCell>
        <mxCell id="cCi473XIP719685R_bGp-8" value="&lt;font face=&quot;Cascadia Code&quot; color=&quot;#4d4d4d&quot;&gt;&lt;span style=&quot;font-size: 36px;&quot;&gt;19&lt;/span&gt;&lt;/font&gt;" style="rounded=0;whiteSpace=wrap;html=1;strokeWidth=1;fillColor=#DFEAF2;" parent="cCi473XIP719685R_bGp-1" vertex="1">
          <mxGeometry x="640" y="360" width="80" height="80" as="geometry" />
        </mxCell>
        <mxCell id="cCi473XIP719685R_bGp-9" value="&lt;span style=&quot;color: rgb(77, 77, 77); font-family: &amp;quot;Cascadia Code&amp;quot;; font-size: 40px;&quot;&gt;?&lt;/span&gt;" style="rounded=0;whiteSpace=wrap;html=1;strokeWidth=1;fillColor=#DFEAF2;" parent="cCi473XIP719685R_bGp-1" vertex="1">
          <mxGeometry x="720" y="360" width="80" height="80" as="geometry" />
        </mxCell>
        <mxCell id="cCi473XIP719685R_bGp-10" value="&lt;font face=&quot;Cascadia Code&quot; color=&quot;#4d4d4d&quot;&gt;&lt;span style=&quot;font-size: 36px;&quot;&gt;?&lt;/span&gt;&lt;/font&gt;" style="rounded=0;whiteSpace=wrap;html=1;strokeWidth=1;fillColor=#E6E6E6;fontColor=#333333;strokeColor=#666666;fillStyle=auto;" parent="cCi473XIP719685R_bGp-1" vertex="1">
          <mxGeometry x="320" y="360" width="80" height="80" as="geometry" />
        </mxCell>
        <mxCell id="BZogsiqjo5Cw2hIviGLd-0" value="" style="group" parent="cCi473XIP719685R_bGp-1" vertex="1" connectable="0">
          <mxGeometry x="650" y="230" width="200" height="120" as="geometry" />
        </mxCell>
        <mxCell id="BZogsiqjo5Cw2hIviGLd-1" value="" style="group" parent="BZogsiqjo5Cw2hIviGLd-0" vertex="1" connectable="0">
          <mxGeometry width="200" height="100" as="geometry" />
        </mxCell>
        <mxCell id="BZogsiqjo5Cw2hIviGLd-2" value="&lt;font style=&quot;font-size: 32px;&quot;&gt;🕵🏻&lt;/font&gt;" style="text;html=1;align=center;verticalAlign=middle;whiteSpace=wrap;rounded=0;" parent="BZogsiqjo5Cw2hIviGLd-1" vertex="1">
          <mxGeometry y="40" width="70" height="60" as="geometry" />
        </mxCell>
        <mxCell id="BZogsiqjo5Cw2hIviGLd-3" value="&lt;span style=&quot;color: rgb(77, 77, 77); font-family: &amp;quot;Cascadia Code&amp;quot;; font-size: 18px;&quot;&gt;¿igual, menor o mayor a 15&lt;/span&gt;&lt;span style=&quot;color: rgb(77, 77, 77); font-family: &amp;quot;Cascadia Code&amp;quot;; font-size: 18px;&quot;&gt;?&lt;/span&gt;" style="whiteSpace=wrap;html=1;shape=mxgraph.basic.roundRectCallout;dx=30;dy=15;size=5;boundedLbl=1;" parent="BZogsiqjo5Cw2hIviGLd-1" vertex="1">
          <mxGeometry x="40" width="160" height="60" as="geometry" />
        </mxCell>
        <mxCell id="PdNgPkymKCbKTyO1bNnt-0" value="&lt;span style=&quot;font-family: &amp;quot;Cascadia Code&amp;quot;; font-size: 18px;&quot;&gt;mayor&lt;/span&gt;" style="text;html=1;align=center;verticalAlign=middle;whiteSpace=wrap;rounded=0;" parent="BZogsiqjo5Cw2hIviGLd-1" vertex="1">
          <mxGeometry x="100" y="50" width="80" height="40" as="geometry" />
        </mxCell>
        <mxCell id="BZogsiqjo5Cw2hIviGLd-5" value="" style="endArrow=classic;html=1;rounded=0;strokeWidth=2;strokeColor=#4D4D4D;" parent="BZogsiqjo5Cw2hIviGLd-0" edge="1">
          <mxGeometry width="50" height="50" relative="1" as="geometry">
            <mxPoint x="30.900000000000006" y="90" as="sourcePoint" />
            <mxPoint x="30.900000000000006" y="120" as="targetPoint" />
          </mxGeometry>
        </mxCell>
      </root>
    </mxGraphModel>
  </diagram>
  <diagram name="paso_4" id="9VM80IzWCYA_kPb3okqF">
    <mxGraphModel dx="1370" dy="843" grid="1" gridSize="10" guides="1" tooltips="1" connect="1" arrows="1" fold="1" page="1" pageScale="1" pageWidth="850" pageHeight="1100" math="0" shadow="0">
      <root>
        <mxCell id="bhzIs9VExPx_mqPHXUl9-0" />
        <mxCell id="bhzIs9VExPx_mqPHXUl9-1" parent="bhzIs9VExPx_mqPHXUl9-0" />
        <mxCell id="bhzIs9VExPx_mqPHXUl9-2" value="&lt;font face=&quot;Cascadia Code&quot; color=&quot;#4d4d4d&quot;&gt;&lt;span style=&quot;font-size: 36px;&quot;&gt;?&lt;/span&gt;&lt;/font&gt;" style="rounded=0;whiteSpace=wrap;html=1;strokeWidth=1;fillColor=#E6E6E6;fontColor=#333333;strokeColor=#666666;fillStyle=auto;" parent="bhzIs9VExPx_mqPHXUl9-1" vertex="1">
          <mxGeometry x="80" y="360" width="80" height="80" as="geometry" />
        </mxCell>
        <mxCell id="bhzIs9VExPx_mqPHXUl9-3" value="&lt;span style=&quot;color: rgb(77, 77, 77); font-family: &amp;quot;Cascadia Code&amp;quot;; font-size: 40px;&quot;&gt;11&lt;/span&gt;" style="rounded=0;whiteSpace=wrap;html=1;strokeWidth=1;fillColor=#E6E6E6;strokeColor=#666666;" parent="bhzIs9VExPx_mqPHXUl9-1" vertex="1">
          <mxGeometry x="400" y="360" width="80" height="80" as="geometry" />
        </mxCell>
        <mxCell id="bhzIs9VExPx_mqPHXUl9-4" value="&lt;font face=&quot;Cascadia Code&quot; color=&quot;#4d4d4d&quot;&gt;&lt;span style=&quot;font-size: 36px;&quot;&gt;?&lt;/span&gt;&lt;/font&gt;" style="rounded=0;whiteSpace=wrap;html=1;strokeWidth=1;fillColor=#E6E6E6;fontColor=#333333;strokeColor=#666666;fillStyle=auto;" parent="bhzIs9VExPx_mqPHXUl9-1" vertex="1">
          <mxGeometry x="160" y="360" width="80" height="80" as="geometry" />
        </mxCell>
        <mxCell id="bhzIs9VExPx_mqPHXUl9-5" value="&lt;font face=&quot;Cascadia Code&quot; color=&quot;#4d4d4d&quot;&gt;&lt;span style=&quot;font-size: 36px;&quot;&gt;?&lt;/span&gt;&lt;/font&gt;" style="rounded=0;whiteSpace=wrap;html=1;strokeWidth=1;fillColor=#E6E6E6;fontColor=#333333;strokeColor=#666666;fillStyle=auto;" parent="bhzIs9VExPx_mqPHXUl9-1" vertex="1">
          <mxGeometry x="240" y="360" width="80" height="80" as="geometry" />
        </mxCell>
        <mxCell id="bhzIs9VExPx_mqPHXUl9-6" value="&lt;font style=&quot;font-size: 36px;&quot; face=&quot;Cascadia Code&quot; color=&quot;#4d4d4d&quot;&gt;?&lt;/font&gt;" style="rounded=0;whiteSpace=wrap;html=1;strokeWidth=1;fillColor=#DFEAF2;" parent="bhzIs9VExPx_mqPHXUl9-1" vertex="1">
          <mxGeometry x="480" y="360" width="80" height="80" as="geometry" />
        </mxCell>
        <mxCell id="bhzIs9VExPx_mqPHXUl9-8" value="&lt;font face=&quot;Cascadia Code&quot; color=&quot;#4d4d4d&quot;&gt;&lt;span style=&quot;font-size: 36px;&quot;&gt;19&lt;/span&gt;&lt;/font&gt;" style="rounded=0;whiteSpace=wrap;html=1;strokeWidth=1;fillColor=#E6E6E6;strokeColor=#666666;" parent="bhzIs9VExPx_mqPHXUl9-1" vertex="1">
          <mxGeometry x="640" y="360" width="80" height="80" as="geometry" />
        </mxCell>
        <mxCell id="bhzIs9VExPx_mqPHXUl9-7" value="&lt;span style=&quot;color: rgb(77, 77, 77); font-family: &amp;quot;Cascadia Code&amp;quot;; font-size: 40px;&quot;&gt;16&lt;/span&gt;" style="rounded=0;whiteSpace=wrap;html=1;strokeWidth=1;fillColor=#DFEAF2;" parent="bhzIs9VExPx_mqPHXUl9-1" vertex="1">
          <mxGeometry x="560" y="360" width="80" height="80" as="geometry" />
        </mxCell>
        <mxCell id="bhzIs9VExPx_mqPHXUl9-10" value="&lt;font face=&quot;Cascadia Code&quot; color=&quot;#4d4d4d&quot;&gt;&lt;span style=&quot;font-size: 36px;&quot;&gt;?&lt;/span&gt;&lt;/font&gt;" style="rounded=0;whiteSpace=wrap;html=1;strokeWidth=1;fillColor=#E6E6E6;fontColor=#333333;strokeColor=#666666;fillStyle=auto;" parent="bhzIs9VExPx_mqPHXUl9-1" vertex="1">
          <mxGeometry x="320" y="360" width="80" height="80" as="geometry" />
        </mxCell>
        <mxCell id="bhzIs9VExPx_mqPHXUl9-11" value="" style="group" parent="bhzIs9VExPx_mqPHXUl9-1" vertex="1" connectable="0">
          <mxGeometry x="570" y="230" width="200" height="120" as="geometry" />
        </mxCell>
        <mxCell id="bhzIs9VExPx_mqPHXUl9-12" value="" style="group" parent="bhzIs9VExPx_mqPHXUl9-11" vertex="1" connectable="0">
          <mxGeometry width="200" height="100" as="geometry" />
        </mxCell>
        <mxCell id="bhzIs9VExPx_mqPHXUl9-13" value="&lt;font style=&quot;font-size: 32px;&quot;&gt;🕵🏻&lt;/font&gt;" style="text;html=1;align=center;verticalAlign=middle;whiteSpace=wrap;rounded=0;" parent="bhzIs9VExPx_mqPHXUl9-12" vertex="1">
          <mxGeometry y="40" width="70" height="60" as="geometry" />
        </mxCell>
        <mxCell id="bhzIs9VExPx_mqPHXUl9-14" value="&lt;span style=&quot;color: rgb(77, 77, 77); font-family: &amp;quot;Cascadia Code&amp;quot;; font-size: 18px;&quot;&gt;¿igual, menor o mayor a 15&lt;/span&gt;&lt;span style=&quot;color: rgb(77, 77, 77); font-family: &amp;quot;Cascadia Code&amp;quot;; font-size: 18px;&quot;&gt;?&lt;/span&gt;" style="whiteSpace=wrap;html=1;shape=mxgraph.basic.roundRectCallout;dx=30;dy=15;size=5;boundedLbl=1;" parent="bhzIs9VExPx_mqPHXUl9-12" vertex="1">
          <mxGeometry x="40" width="160" height="60" as="geometry" />
        </mxCell>
        <mxCell id="LPUpgD3cZ0L4lHBpLX-K-1" value="&lt;span style=&quot;font-family: &amp;quot;Cascadia Code&amp;quot;; font-size: 18px;&quot;&gt;mayor&lt;/span&gt;" style="text;html=1;align=center;verticalAlign=middle;whiteSpace=wrap;rounded=0;" parent="bhzIs9VExPx_mqPHXUl9-12" vertex="1">
          <mxGeometry x="90" y="50" width="80" height="40" as="geometry" />
        </mxCell>
        <mxCell id="bhzIs9VExPx_mqPHXUl9-16" value="" style="endArrow=classic;html=1;rounded=0;strokeWidth=2;strokeColor=#4D4D4D;" parent="bhzIs9VExPx_mqPHXUl9-11" edge="1">
          <mxGeometry width="50" height="50" relative="1" as="geometry">
            <mxPoint x="30.900000000000006" y="90" as="sourcePoint" />
            <mxPoint x="30.900000000000006" y="120" as="targetPoint" />
          </mxGeometry>
        </mxCell>
        <mxCell id="63khCok4reNbK28MRM-n-0" value="&lt;font face=&quot;Cascadia Code&quot; color=&quot;#4d4d4d&quot;&gt;&lt;span style=&quot;font-size: 36px;&quot;&gt;?&lt;/span&gt;&lt;/font&gt;" style="rounded=0;whiteSpace=wrap;html=1;strokeWidth=1;fillColor=#E6E6E6;fontColor=#333333;strokeColor=#666666;fillStyle=auto;" parent="bhzIs9VExPx_mqPHXUl9-1" vertex="1">
          <mxGeometry x="720" y="360" width="80" height="80" as="geometry" />
        </mxCell>
      </root>
    </mxGraphModel>
  </diagram>
  <diagram name="paso_5" id="C5x6MBLjc-6FjZuIJzeT">
    <mxGraphModel dx="1370" dy="843" grid="1" gridSize="10" guides="1" tooltips="1" connect="1" arrows="1" fold="1" page="1" pageScale="1" pageWidth="850" pageHeight="1100" math="0" shadow="0">
      <root>
        <mxCell id="QHEqV6EkkodFR_4RAdv6-0" />
        <mxCell id="QHEqV6EkkodFR_4RAdv6-1" parent="QHEqV6EkkodFR_4RAdv6-0" />
        <mxCell id="QHEqV6EkkodFR_4RAdv6-2" value="&lt;font face=&quot;Cascadia Code&quot; color=&quot;#4d4d4d&quot;&gt;&lt;span style=&quot;font-size: 36px;&quot;&gt;?&lt;/span&gt;&lt;/font&gt;" style="rounded=0;whiteSpace=wrap;html=1;strokeWidth=1;fillColor=#E6E6E6;fontColor=#333333;strokeColor=#666666;fillStyle=auto;" parent="QHEqV6EkkodFR_4RAdv6-1" vertex="1">
          <mxGeometry x="80" y="360" width="80" height="80" as="geometry" />
        </mxCell>
        <mxCell id="QHEqV6EkkodFR_4RAdv6-3" value="&lt;span style=&quot;color: rgb(77, 77, 77); font-family: &amp;quot;Cascadia Code&amp;quot;; font-size: 40px;&quot;&gt;11&lt;/span&gt;" style="rounded=0;whiteSpace=wrap;html=1;strokeWidth=1;fillColor=#E6E6E6;strokeColor=#666666;" parent="QHEqV6EkkodFR_4RAdv6-1" vertex="1">
          <mxGeometry x="400" y="360" width="80" height="80" as="geometry" />
        </mxCell>
        <mxCell id="QHEqV6EkkodFR_4RAdv6-4" value="&lt;font face=&quot;Cascadia Code&quot; color=&quot;#4d4d4d&quot;&gt;&lt;span style=&quot;font-size: 36px;&quot;&gt;?&lt;/span&gt;&lt;/font&gt;" style="rounded=0;whiteSpace=wrap;html=1;strokeWidth=1;fillColor=#E6E6E6;fontColor=#333333;strokeColor=#666666;fillStyle=auto;" parent="QHEqV6EkkodFR_4RAdv6-1" vertex="1">
          <mxGeometry x="160" y="360" width="80" height="80" as="geometry" />
        </mxCell>
        <mxCell id="QHEqV6EkkodFR_4RAdv6-5" value="&lt;font face=&quot;Cascadia Code&quot; color=&quot;#4d4d4d&quot;&gt;&lt;span style=&quot;font-size: 36px;&quot;&gt;?&lt;/span&gt;&lt;/font&gt;" style="rounded=0;whiteSpace=wrap;html=1;strokeWidth=1;fillColor=#E6E6E6;fontColor=#333333;strokeColor=#666666;fillStyle=auto;" parent="QHEqV6EkkodFR_4RAdv6-1" vertex="1">
          <mxGeometry x="240" y="360" width="80" height="80" as="geometry" />
        </mxCell>
        <mxCell id="QHEqV6EkkodFR_4RAdv6-7" value="&lt;span style=&quot;color: rgb(77, 77, 77); font-family: &amp;quot;Cascadia Code&amp;quot;; font-size: 40px;&quot;&gt;16&lt;/span&gt;" style="rounded=0;whiteSpace=wrap;html=1;strokeWidth=1;fillColor=#E6E6E6;strokeColor=#666666;" parent="QHEqV6EkkodFR_4RAdv6-1" vertex="1">
          <mxGeometry x="560" y="360" width="80" height="80" as="geometry" />
        </mxCell>
        <mxCell id="QHEqV6EkkodFR_4RAdv6-6" value="&lt;font style=&quot;font-size: 36px;&quot; face=&quot;Cascadia Code&quot; color=&quot;#4d4d4d&quot;&gt;15&lt;/font&gt;" style="rounded=0;whiteSpace=wrap;html=1;strokeWidth=3;fillColor=#d5e8d4;strokeColor=#82b366;" parent="QHEqV6EkkodFR_4RAdv6-1" vertex="1">
          <mxGeometry x="480" y="360" width="80" height="80" as="geometry" />
        </mxCell>
        <mxCell id="QHEqV6EkkodFR_4RAdv6-8" value="&lt;font face=&quot;Cascadia Code&quot; color=&quot;#4d4d4d&quot;&gt;&lt;span style=&quot;font-size: 36px;&quot;&gt;19&lt;/span&gt;&lt;/font&gt;" style="rounded=0;whiteSpace=wrap;html=1;strokeWidth=1;fillColor=#E6E6E6;strokeColor=#666666;" parent="QHEqV6EkkodFR_4RAdv6-1" vertex="1">
          <mxGeometry x="640" y="360" width="80" height="80" as="geometry" />
        </mxCell>
        <mxCell id="QHEqV6EkkodFR_4RAdv6-9" value="&lt;font face=&quot;Cascadia Code&quot; color=&quot;#4d4d4d&quot;&gt;&lt;span style=&quot;font-size: 36px;&quot;&gt;?&lt;/span&gt;&lt;/font&gt;" style="rounded=0;whiteSpace=wrap;html=1;strokeWidth=1;fillColor=#E6E6E6;fontColor=#333333;strokeColor=#666666;fillStyle=auto;" parent="QHEqV6EkkodFR_4RAdv6-1" vertex="1">
          <mxGeometry x="320" y="360" width="80" height="80" as="geometry" />
        </mxCell>
        <mxCell id="QHEqV6EkkodFR_4RAdv6-10" value="" style="group" parent="QHEqV6EkkodFR_4RAdv6-1" vertex="1" connectable="0">
          <mxGeometry x="490" y="230" width="200" height="120" as="geometry" />
        </mxCell>
        <mxCell id="QHEqV6EkkodFR_4RAdv6-11" value="" style="group" parent="QHEqV6EkkodFR_4RAdv6-10" vertex="1" connectable="0">
          <mxGeometry width="200" height="100" as="geometry" />
        </mxCell>
        <mxCell id="QHEqV6EkkodFR_4RAdv6-12" value="&lt;font style=&quot;font-size: 32px;&quot;&gt;🕵🏻&lt;/font&gt;" style="text;html=1;align=center;verticalAlign=middle;whiteSpace=wrap;rounded=0;" parent="QHEqV6EkkodFR_4RAdv6-11" vertex="1">
          <mxGeometry y="40" width="70" height="60" as="geometry" />
        </mxCell>
        <mxCell id="QHEqV6EkkodFR_4RAdv6-13" value="&lt;span style=&quot;color: rgb(77, 77, 77); font-family: &amp;quot;Cascadia Code&amp;quot;; font-size: 18px;&quot;&gt;¿igual, menor o mayor a 15&lt;/span&gt;&lt;span style=&quot;color: rgb(77, 77, 77); font-family: &amp;quot;Cascadia Code&amp;quot;; font-size: 18px;&quot;&gt;?&lt;/span&gt;" style="whiteSpace=wrap;html=1;shape=mxgraph.basic.roundRectCallout;dx=30;dy=15;size=5;boundedLbl=1;" parent="QHEqV6EkkodFR_4RAdv6-11" vertex="1">
          <mxGeometry x="40" width="160" height="60" as="geometry" />
        </mxCell>
        <mxCell id="uj03eNtXZxig5w5buxMf-2" value="&lt;span style=&quot;font-family: &amp;quot;Cascadia Code&amp;quot;; font-size: 18px;&quot;&gt;¡igual!&lt;/span&gt;" style="text;html=1;align=center;verticalAlign=middle;whiteSpace=wrap;rounded=0;" parent="QHEqV6EkkodFR_4RAdv6-11" vertex="1">
          <mxGeometry x="100" y="55" width="60" height="30" as="geometry" />
        </mxCell>
        <mxCell id="QHEqV6EkkodFR_4RAdv6-15" value="" style="endArrow=classic;html=1;rounded=0;strokeWidth=2;strokeColor=#4D4D4D;" parent="QHEqV6EkkodFR_4RAdv6-10" edge="1">
          <mxGeometry width="50" height="50" relative="1" as="geometry">
            <mxPoint x="30.900000000000006" y="90" as="sourcePoint" />
            <mxPoint x="30.900000000000006" y="120" as="targetPoint" />
          </mxGeometry>
        </mxCell>
        <mxCell id="QHEqV6EkkodFR_4RAdv6-16" value="&lt;font face=&quot;Cascadia Code&quot; color=&quot;#4d4d4d&quot;&gt;&lt;span style=&quot;font-size: 36px;&quot;&gt;?&lt;/span&gt;&lt;/font&gt;" style="rounded=0;whiteSpace=wrap;html=1;strokeWidth=1;fillColor=#E6E6E6;fontColor=#333333;strokeColor=#666666;fillStyle=auto;" parent="QHEqV6EkkodFR_4RAdv6-1" vertex="1">
          <mxGeometry x="720" y="360" width="80" height="80" as="geometry" />
        </mxCell>
      </root>
    </mxGraphModel>
  </diagram>
</mxfile>
